Patient4_TMGait_0pt5_02_right_08_EMG.mot
version=1
nRows=30
nColumns=33
inDegrees=no
endheader
time	1LAddLong	2LGlutMax	3LGlutMed	4LIliopsoas	5LSemiMemb	6LBicFemLong	7LRecFem	8LVastMed	9LVastLat	10LGasMed	11LTibAnt	12lTibPost	13LPeroneusLong	14LSol	15LExtDigLong	16LFlexDigLong	17RAddLong	18RGlutMax	19RGlutMed	20RIliopsoas	21RSemiMemb	22RBicFemLong	23RRecFem	24RVastMed	25RVastLat	26RGasMed	27RTibAnt	28RTibPost	29RPeroneusLong	30RSol	31RExtDigLong	32RFlexDigLong
11.365	0.034637	-0.030823	0.014343	0.012512	0.14023	-0.12405	0.081329	0	0.026855	0.010986	-0.07309	0.003815	0.03891	0.003052	-0.061646	-0.042725	0.027008	0.00061	0.04303	-0.048523	-0.14725	-0.039368	-0.13519	-0.023041	-0.046082	0.002899	-0.083923	-0.001526	-0.33981	0.03891	-0.006866	-0.019073
11.366	0.019684	-0.026093	-0.011749	0.011139	0.14694	0.00885	0.082855	0.00412	0.09903	0.026245	0.019379	0.006866	0.030823	-0.011444	0.10651	-0.053558	0.03891	0.005646	0.14954	-0.095062	-0.29526	-0.005493	-0.15167	-0.056	-0.044861	0.000458	0.11932	-0.002289	-0.20813	-0.025635	-0.007019	-0.015411
11.367	0.014954	0.014496	0.039215	0.005341	0.049133	0.13596	0.15381	0.006714	0.18951	0.03006	0.10376	0.007324	0.054626	-0.00061	-0.085297	-0.043793	0.01358	0.085144	0.20309	-0.070648	-0.22034	0.040741	-0.19241	-0.003052	-0.032959	0.00351	0.55435	-0.00061	0.1413	-0.12894	-0.007477	-0.013428
11.368	-0.004425	-0.031891	0.051422	0.009155	-0.022888	0.1265	0.13321	0.017395	0.023956	0.038605	0.018921	-0.006409	0.036469	0.05722	0.30914	-0.047455	-0.004883	0.098572	0.018005	-0.027466	-0.04425	0.052948	-0.1387	-0.049896	-0.058441	0.011444	0.53055	-0.002747	0.37521	-0.17029	-0.009003	-0.018158
11.369	-0.028534	-0.098114	0.040283	-0.00412	-0.017242	0.016632	0.056	0.006714	-0.20004	0.030518	-0.084381	0.00351	0.052948	0.11795	0.080261	-0.044708	-0.008545	0.080566	-0.009155	0.015564	-0.029602	0.033875	-0.16647	-0.020599	-0.030823	0.009766	0.24994	-0.002594	0.33386	-0.06012	-0.009766	-0.013885
11.37	-0.012817	-0.15152	0.033875	-0.01297	0.040436	0.056915	0.015106	0.011139	-0.27268	0.005951	-0.40237	0.007477	0.11643	0.112	-0.001526	-0.025177	-0.01297	0.15213	0.043488	0.005493	0.058136	0.00473	-0.19196	0.004578	-0.020447	-0.009155	0.12528	-0.00412	0.15808	0.017853	-0.005341	-0.022278
11.371	-0.035553	-0.18768	0.018616	-0.004578	0.070953	0.16876	0.020905	0.019073	-0.24094	-0.027924	-0.36179	-0.001068	0.17563	0.11017	-0.11963	-0.016327	-0.005188	0.18509	0.02121	-0.038757	0.072021	-0.000763	-0.22324	0.031433	-0.016174	-0.008392	-0.12497	-0.002594	0.021667	-0.001068	-0.002594	-0.013733
11.372	-0.030212	-0.21057	0.007629	-0.014954	-0.033722	0.39581	0.048676	0.008698	-0.19775	-0.012512	-0.11505	0.002747	0.12848	0.018768	-0.11139	-0.014801	0.033569	0.20294	0.030975	-0.075226	0.041046	-0.063477	-0.21347	0.02182	-0.029297	-0.005798	-0.34241	-0.002747	0.047455	0.057373	-0.004272	-0.018768
11.373	-0.014343	-0.19638	-0.013123	-0.000153	-0.10834	0.45548	0.076141	0.015869	-0.16052	0.020294	-0.005341	0.000305	0.054474	-0.071259	0.05127	-0.026398	0.043488	0.20523	0.032196	-0.048981	0.003052	-0.1329	-0.19821	0.02243	-0.007324	0.003967	-0.21271	-0.002594	0.14877	0.066376	-0.007935	-0.00824
11.374	0.005341	-0.18662	-0.043488	0.011597	-0.13901	0.25101	-0.002899	0.015564	-0.12283	0.046234	0.028076	-0.003357	0.026245	-0.13947	-0.2861	-0.024109	-0.005035	0.18341	-0.003204	-0.018158	-0.025024	-0.037231	-0.24948	0.057068	-0.003357	-0.006256	-0.053101	-0.004578	0.1384	0.032196	-0.003967	-0.008392
11.375	0.028076	-0.089417	-0.044861	0.001373	-0.14679	0.12436	-0.017242	0.009918	0.030518	0.050507	0.10223	0.00351	0.011139	-0.11154	-0.34607	-0.002747	-0.048218	0.2359	-0.013123	0.000763	0.080566	0.071716	-0.24796	0.061951	0.003967	-0.011139	-0.015411	-0.003662	0.032349	0.008545	-0.005341	-0.013275
11.376	0.036011	0.017853	-0.025024	0.009918	-0.056458	-0.024567	0.015717	-0.001068	0.22964	0.046082	0.11719	-0.005341	0.003815	-0.082245	-0.3212	-0.007782	-0.029755	0.25559	-0.023499	0.031128	0.13733	0.14526	-0.21591	0.055389	-0.025635	-0.003357	0.11047	-0.002136	-0.13229	-0.00824	-0.005493	-0.014496
11.377	0.036163	0.098114	0.005035	0.006714	0.053406	-0.05249	-0.016937	-0.014191	0.35523	0.036163	0.18631	0.003815	-0.022583	-0.053101	-0.20233	-0.00824	-0.006409	0.36606	-0.076752	-0.038605	0.069275	0.18967	-0.20889	0.004578	-0.019073	0.010986	0.20279	-0.001984	-0.16495	-0.033264	-0.009918	-0.012817
11.378	0.022125	0.1088	-0.03067	0.01236	0.069427	0.011444	0.004425	-0.006714	0.3125	-0.002747	0.23514	-0.006866	-0.02243	-0.006256	-0.011139	-0.00824	0.018768	0.33585	-0.008392	0.002289	0.032806	0.16403	-0.18646	-0.046234	-0.043945	-0.014801	0.17914	-0.00351	-0.16678	-0.014038	-0.005493	-0.015259
11.379	0.010376	0.15732	-0.027008	0.012817	0.023499	-0.097351	0.021667	-0.000305	0.25299	-0.016937	0.21393	0.003967	-0.039673	0.029449	0.075226	-0.010223	0.024261	0.42023	-0.022278	-0.013733	-0.013733	0.14191	-0.18646	-0.038757	-0.061646	-0.018616	0.18799	-0.002289	-0.12558	-0.048523	-0.002594	-0.018616
11.38	0.006561	0.21805	-0.002136	0.005341	0.003815	-0.2861	0.02182	-0.003052	0.16724	-0.012512	0.16693	0.002136	-0.021973	0.037537	0.10849	-0.005646	0.031128	0.46829	-0.041962	0.029449	0.011749	0.13275	-0.20691	-0.077362	-0.060425	-0.007324	0.053558	-0.003662	-0.0354	-0.13473	-0.006409	-0.019226
11.381	-0.002899	0.23483	-0.011597	0.004883	0.033722	-0.45181	0.078888	-0.008545	0.1532	0.033264	0.053406	-0.003662	0.007782	0.034943	0.12329	0.002747	0.027313	0.54794	-0.049286	0.068207	0.006714	0.12619	-0.1976	-0.090332	-0.063171	0.009003	-0.048523	-0.000458	0.095978	-0.17548	-0.009003	-0.016327
11.382	-0.014038	0.2301	0.013885	-0.009003	0.016327	-0.53101	0.12497	-0.014954	0.040741	0.036926	-0.13947	0.000916	0.010376	0.011444	0.12222	-0.003967	0.033875	0.61462	-0.072479	0.013428	-0.023804	0.093689	-0.21851	-0.040131	-0.063324	-0.006866	0.049133	0.00061	0.20447	-0.19806	-0.003662	-0.022736
11.383	-0.010071	0.20615	0.041351	-0.018463	0.042877	-0.36087	0.14008	0.001678	-0.021973	0.032806	-0.20813	-0.002899	0.023499	0.001984	0.10468	-0.000916	0.028687	0.71167	-0.15808	-0.056915	-0.013428	0.14099	-0.22797	-0.063934	-0.078735	-0.010834	0.097504	0.000153	0.21622	-0.16769	-0.001831	-0.021362
11.384	0.010681	0.2066	-0.007935	-0.007172	0.065765	-0.20599	0.10788	0.016785	-0.13626	0.028534	-0.16998	0.000458	0.056458	0.006409	-0.028839	-0.005493	0.031738	0.61829	-0.14145	-0.071564	-0.001526	0.16602	-0.23483	-0.060883	-0.065918	-0.010834	-0.19852	0.005341	0.11978	-0.077972	-0.00412	-0.023804
11.385	-0.00412	0.25711	-0.030975	0.013123	0.024719	0.052643	0.083771	0.01297	-0.18219	0.029907	-0.10452	0.006561	0.069427	-0.016785	-0.00351	-0.007782	0.019684	0.61951	-0.13565	-0.066528	-0.001373	0.2359	-0.23209	-0.032349	-0.043335	-0.013275	-0.45853	-0.002594	0.075226	-0.020447	-0.004425	-0.018768
11.386	0.015259	0.20462	-0.033264	0.003357	-0.042419	0.079956	-0.034027	0.011597	-0.10773	0.042114	0.006104	0.00946	0.007019	-0.009155	0.17731	-0.002136	0.017548	0.68436	-0.13107	-0.019379	0.005646	0.11124	-0.25909	-0.05722	-0.037384	-0.005188	-0.015259	-0.001678	0.068207	-0.014954	-0.003967	-0.022278
11.387	0.019379	0.21255	-0.009613	0.024109	-0.058289	-0.043488	-0.077667	0.009613	-0.027924	0.05661	0.01709	0.00946	-0.011597	0.012207	0.27817	-0.007477	0.016022	0.64087	-0.070343	0.003052	-0.042419	0.057373	-0.24262	-0.034332	-0.041046	0.008698	0.32059	-0.002594	0.16876	-0.159	-0.002441	-0.017242
11.388	0.026855	0.25803	-0.095062	0.023499	-0.092773	-0.12451	-0.021667	0.006561	0.082397	0.049286	-0.017242	0.003204	-0.011902	0.032196	0.25055	-0.005798	0.006561	0.67856	-0.045624	-0.002747	-0.050201	0.10513	-0.21576	-0.0177	-0.057678	0.008392	-0.29129	-0.002441	0.18829	-0.22171	-0.003204	-0.019531
11.389	0.032196	0.26901	-0.095825	0.007477	-0.14267	-0.23529	0.016479	0.007477	0.069733	0.039825	-0.093994	0.003815	-0.008392	0.0354	0.4361	0.011597	0.014038	0.75684	-0.10468	0.020294	-0.090027	0.12787	-0.23773	-0.009613	-0.040894	-0.002899	-0.46173	-0.001373	-0.027771	-0.1268	0	-0.016937
11.39	0.034637	0.22095	-0.088959	0.024719	-0.071106	-0.16327	-0.000458	-0.014648	-0.058899	0.026703	-0.13611	0.001221	0.014496	0.062256	-0.14633	0.009613	0.005035	0.78812	-0.15747	0.10101	-0.13153	0.090332	-0.29602	-0.028229	-0.037994	0.004425	-0.21652	0.001373	0.017242	-0.11948	-0.001678	-0.019989
11.391	0.038757	0.22553	-0.00824	0.000305	0.093689	-0.11551	-0.057526	-0.005493	-0.051117	0.009918	-0.10529	0.005188	0.028381	0.095215	-0.48752	0.020294	-0.001831	0.7843	-0.075226	0.07843	-0.14069	0.03479	-0.29709	-0.012665	-0.042572	0.00885	0.11581	0.002289	-0.024414	-0.039063	-0.009766	-0.014191
11.392	0.045166	0.32318	-0.05661	0.004425	0.15533	0.051727	-0.017242	0.011292	-0.03067	0.00061	-0.042114	-0.00351	0.015106	0.06134	-0.38956	0.03006	-0.007324	0.78507	-0.16449	0.050201	-0.10834	0.10376	-0.29633	-0.007172	-0.030518	0.004883	0.29358	-0.007172	-0.14297	0.12253	-0.004578	-0.014038
11.393	0.036926	0.31448	-0.019989	0.002747	0.1329	0.159	0.032196	0.029907	0.054932	0.005951	0.046387	0.007477	0.009308	0.06073	-0.30045	0.004578	-0.006104	0.77316	-0.12802	0.006409	-0.080109	0.13382	-0.27847	-0.005951	-0.025024	-0.002289	0.19898	-0.005646	-0.13153	0.17838	-0.001678	-0.016937
11.394	0.020752	0.36743	0.041656	0.008545	0.079041	0.14694	0.033569	0.041351	0.12665	0.009613	0.065308	0.005493	0.049591	0.06897	0.088348	0.01297	-0.022278	0.74829	-0.098877	0.015869	-0.08728	0.15442	-0.28671	0.021667	-0.035858	-0.001221	0.098267	-0.005188	-0.13046	0.1796	-0.002136	-0.013123
